<?xml version="1.0" encoding="UTF-8" standalone="no"?>
<svg
   xmlns:dc="http://purl.org/dc/elements/1.1/"
   xmlns:cc="http://creativecommons.org/ns#"
   xmlns:rdf="http://www.w3.org/1999/02/22-rdf-syntax-ns#"
   xmlns:svg="http://www.w3.org/2000/svg"
   xmlns="http://www.w3.org/2000/svg"
   xmlns:sodipodi="http://sodipodi.sourceforge.net/DTD/sodipodi-0.dtd"
   xmlns:inkscape="http://www.inkscape.org/namespaces/inkscape"
   width="336"
   height="48"
   viewBox="0 0 336 48"
   version="1.1"
   id="svg6"
   sodipodi:docname="about-wordmark.svg"
   inkscape:version="1.0.1 (3bc2e813f5, 2020-09-07)">
  <metadata
     id="metadata12">
    <rdf:RDF>
      <cc:Work
         rdf:about="">
        <dc:format>image/svg+xml</dc:format>
        <dc:type
           rdf:resource="http://purl.org/dc/dcmitype/StillImage" />
      </cc:Work>
    </rdf:RDF>
  </metadata>
  <defs
     id="defs10" />
  <sodipodi:namedview
     pagecolor="#ffffff"
     bordercolor="#666666"
     borderopacity="1"
     objecttolerance="10"
     gridtolerance="10"
     guidetolerance="10"
     inkscape:pageopacity="0"
     inkscape:pageshadow="2"
     inkscape:window-width="1920"
     inkscape:window-height="1017"
     id="namedview8"
     showgrid="false"
     inkscape:zoom="3.1011905"
     inkscape:cx="168"
     inkscape:cy="24"
     inkscape:window-x="-8"
     inkscape:window-y="-8"
     inkscape:window-maximized="1"
     inkscape:current-layer="svg6" />
  <g
     aria-label="Vessel Browser"
     id="text839"
     style="font-size:44px;line-height:1.25;font-family:Sora;-inkscape-font-specification:Sora;letter-spacing:0px;word-spacing:0px;fill:none">
    <path
       d="M 13.072,39.931999 1.94,7.8119992 h 4.444 l 9.988,29.3039998 -2.112,-1.056 h 5.28 l -2.244,1.056 9.196,-29.3039998 h 4.312 L 20.464,39.931999 Z"
       id="path841"
       style="fill:none" />
    <path
       d="m 44.399884,40.723999 q -3.08,0 -5.324,-1.056 -2.244,-1.056 -3.652,-2.772 -1.408,-1.76 -2.112,-3.916 -0.66,-2.156 -0.66,-4.4 v -0.792 q 0,-2.288 0.66,-4.444 0.704,-2.156 2.112,-3.872 1.408,-1.76 3.564,-2.772 2.2,-1.056 5.148,-1.056 3.828,0 6.292,1.672 2.508,1.628 3.696,4.224 1.232,2.596 1.232,5.544 v 1.892 h -20.856 v -3.168 h 17.776 l -0.968,1.716 q 0,-2.508 -0.792,-4.312 -0.792,-1.848 -2.376,-2.86 -1.584,-1.012 -4.004,-1.012 -2.508,0 -4.18,1.144 -1.628,1.144 -2.464,3.124 -0.792,1.98 -0.792,4.576 0,2.508 0.792,4.532 0.836,1.98 2.552,3.168 1.716,1.144 4.356,1.144 2.772,0 4.488,-1.232 1.76,-1.232 2.112,-2.86 h 3.96 q -0.484,2.42 -1.936,4.18 -1.452,1.76 -3.652,2.684 -2.2,0.924 -4.972,0.924 z"
       id="path843"
       style="fill:none" />
    <path
       d="m 69.039862,40.635999 q -4.62,0 -7.172,-1.98 -2.508,-1.98 -2.596,-5.412 h 3.96 q 0.088,1.364 1.364,2.596 1.32,1.188 4.444,1.188 2.816,0 4.312,-1.1 1.496,-1.144 1.496,-2.772 0,-1.452 -1.1,-2.244 -1.1,-0.836 -3.564,-1.1 l -2.552,-0.264 q -3.344,-0.352 -5.456,-1.98 -2.112,-1.672 -2.112,-4.664 0,-2.244 1.144,-3.828 1.144,-1.628 3.168,-2.464 2.024,-0.88 4.664,-0.88 3.96,0 6.424,1.76 2.464,1.76 2.552,5.236 h -3.96 q -0.044,-1.408 -1.32,-2.376 -1.232,-1.012 -3.696,-1.012 -2.464,0 -3.74,1.012 -1.276,1.012 -1.276,2.552 0,1.32 0.88,2.112 0.924,0.792 2.992,1.012 l 2.552,0.264 q 3.784,0.396 6.072,2.112 2.288,1.672 2.288,4.752 0,2.2 -1.276,3.916 -1.232,1.672 -3.432,2.64 -2.2,0.924 -5.06,0.924 z"
       id="path845"
       style="fill:none" />
    <path
       d="m 92.623831,40.635999 q -4.62,0 -7.172,-1.98 -2.508,-1.98 -2.596,-5.412 h 3.96 q 0.088,1.364 1.364,2.596 1.32,1.188 4.444,1.188 2.816,0 4.312,-1.1 1.496,-1.144 1.496,-2.772 0,-1.452 -1.1,-2.244 -1.1,-0.836 -3.564,-1.1 l -2.552,-0.264 q -3.344,-0.352 -5.456,-1.98 -2.112,-1.672 -2.112,-4.664 0,-2.244 1.144,-3.828 1.144,-1.628 3.168,-2.464 2.024,-0.88 4.664,-0.88 3.96,0 6.424,1.76 2.463999,1.76 2.551999,5.236 h -3.959999 q -0.044,-1.408 -1.32,-2.376 -1.232,-1.012 -3.696,-1.012 -2.464,0 -3.74,1.012 -1.276,1.012 -1.276,2.552 0,1.32 0.88,2.112 0.924,0.792 2.992,1.012 l 2.552,0.264 q 3.784,0.396 6.071999,2.112 2.288,1.672 2.288,4.752 0,2.2 -1.276,3.916 -1.231999,1.672 -3.431999,2.64 -2.2,0.924 -5.06,0.924 z"
       id="path847"
       style="fill:none" />
    <path
       d="m 118.4958,40.723999 q -3.08,0 -5.324,-1.056 -2.244,-1.056 -3.652,-2.772 -1.408,-1.76 -2.112,-3.916 -0.66,-2.156 -0.66,-4.4 v -0.792 q 0,-2.288 0.66,-4.444 0.704,-2.156 2.112,-3.872 1.408,-1.76 3.564,-2.772 2.2,-1.056 5.148,-1.056 3.828,0 6.292,1.672 2.508,1.628 3.696,4.224 1.232,2.596 1.232,5.544 v 1.892 h -20.856 v -3.168 h 17.776 l -0.968,1.716 q 0,-2.508 -0.792,-4.312 -0.792,-1.848 -2.376,-2.86 -1.584,-1.012 -4.004,-1.012 -2.508,0 -4.18,1.144 -1.628,1.144 -2.464,3.124 -0.792,1.98 -0.792,4.576 0,2.508 0.792,4.532 0.836,1.98 2.552,3.168 1.716,1.144 4.356,1.144 2.772,0 4.488,-1.232 1.76,-1.232 2.112,-2.86 h 3.96 q -0.484,2.42 -1.936,4.18 -1.452,1.76 -3.652,2.684 -2.2,0.924 -4.972,0.924 z"
       id="path849"
       style="fill:none" />
    <path
       d="M 135.69977,39.931999 V 7.8119992 h 4.224 V 39.931999 Z m -3.256,-28.776 V 7.8119992 h 7.48 v 3.3439998 z"
       id="path851"
       style="fill:none" />
    <path
       d="m 162.09969,40.107999 v -3.784 h 8.976 q 2.596,0 4.004,-1.452 1.452,-1.496 1.452,-3.96 0,-2.508 -1.408,-3.916 -1.408,-1.452 -4.048,-1.452 h -8.976 v -2.816 h 8.36 q 3.08,0 5.412,0.748 2.376,0.748 3.696,2.508 1.364,1.716 1.364,4.708 v 0.616 q 0,2.816 -1.144,4.796 -1.144,1.936 -3.476,2.992 -2.332,1.012 -5.852,1.012 z m -3.432,0 V 7.6359992 h 4.312 V 40.107999 Z m 3.432,-15.356 v -2.816 h 7.788 q 2.728,0 4.004,-1.452 1.32,-1.496 1.32,-3.784 0,-2.332 -1.32,-3.784 -1.276,-1.496 -4.004,-1.496 h -7.788 V 7.6359992 h 7.04 q 5.28,0 7.876,2.244 2.596,2.1999998 2.596,6.3799998 v 0.616 q 0,2.948 -1.32,4.708 -1.32,1.716 -3.696,2.464 -2.332,0.704 -5.456,0.704 z"
       id="path853"
       style="fill:none" />
    <path
       d="m 187.97163,39.931999 v -23.496 h 3.344 v 9.68 h -0.176 q 0,-5.148 2.244,-7.524 2.288,-2.42 6.82,-2.42 h 0.792 v 3.784 h -1.496 q -3.52,0 -5.412,1.892 -1.892,1.848 -1.892,5.368 v 12.716 z"
       id="path855"
       style="fill:none" />
    <path
       d="m 216.5716,40.723999 q -3.08,0 -5.412,-1.056 -2.332,-1.056 -3.96,-2.772 -1.584,-1.76 -2.42,-3.916 -0.792,-2.156 -0.792,-4.4 v -0.792 q 0,-2.244 0.836,-4.4 0.836,-2.2 2.464,-3.916 1.628,-1.76 3.96,-2.772 2.332,-1.056 5.324,-1.056 2.992,0 5.324,1.056 2.332,1.012 3.96,2.772 1.628,1.716 2.464,3.916 0.836,2.156 0.836,4.4 v 0.792 q 0,2.244 -0.836,4.4 -0.792,2.156 -2.42,3.916 -1.584,1.716 -3.916,2.772 -2.332,1.056 -5.412,1.056 z m 0,-3.784 q 2.64,0 4.488,-1.144 1.892,-1.188 2.86,-3.168 1.012,-1.98 1.012,-4.444 0,-2.508 -1.012,-4.488 -1.012,-1.98 -2.904,-3.124 -1.848,-1.144 -4.444,-1.144 -2.552,0 -4.444,1.144 -1.892,1.144 -2.904,3.124 -1.012,1.98 -1.012,4.488 0,2.464 0.968,4.444 1.012,1.98 2.86,3.168 1.892,1.144 4.532,1.144 z"
       id="path857"
       style="fill:none" />
    <path
       d="m 241.91552,39.931999 4.752,-22.704 h 5.72 l 5.544,22.704 h -3.608 l -5.544,-22.616 h 1.408 l -4.796,22.616 z m -2.156,0 v -3.344 h 4.884 v 3.344 z m -0.968,0 -6.644,-23.496 h 4.048 l 6.468,23.496 z m 16.412,0 v -3.344 h 4.884 v 3.344 z m 1.98,0 5.632,-23.496 h 3.828 l -5.764,23.496 z"
       id="path859"
       style="fill:none" />
    <path
       d="m 279.88742,40.635999 q -4.62,0 -7.172,-1.98 -2.508,-1.98 -2.596,-5.412 h 3.96 q 0.088,1.364 1.364,2.596 1.32,1.188 4.444,1.188 2.816,0 4.312,-1.1 1.496,-1.144 1.496,-2.772 0,-1.452 -1.1,-2.244 -1.1,-0.836 -3.564,-1.1 l -2.552,-0.264 q -3.344,-0.352 -5.456,-1.98 -2.112,-1.672 -2.112,-4.664 0,-2.244 1.144,-3.828 1.144,-1.628 3.168,-2.464 2.024,-0.88 4.664,-0.88 3.96,0 6.424,1.76 2.464,1.76 2.552,5.236 h -3.96 q -0.044,-1.408 -1.32,-2.376 -1.232,-1.012 -3.696,-1.012 -2.464,0 -3.74,1.012 -1.276,1.012 -1.276,2.552 0,1.32 0.88,2.112 0.924,0.792 2.992,1.012 l 2.552,0.264 q 3.784,0.396 6.072,2.112 2.288,1.672 2.288,4.752 0,2.2 -1.276,3.916 -1.232,1.672 -3.432,2.64 -2.2,0.924 -5.06,0.924 z"
       id="path861"
       style="fill:none" />
    <path
       d="m 305.7594,40.723999 q -3.08,0 -5.324,-1.056 -2.244,-1.056 -3.652,-2.772 -1.408,-1.76 -2.112,-3.916 -0.66,-2.156 -0.66,-4.4 v -0.792 q 0,-2.288 0.66,-4.444 0.704,-2.156 2.112,-3.872 1.408,-1.76 3.564,-2.772 2.2,-1.056 5.148,-1.056 3.828,0 6.292,1.672 2.508,1.628 3.696,4.224 1.232,2.596 1.232,5.544 v 1.892 h -20.856 v -3.168 h 17.776 l -0.968,1.716 q 0,-2.508 -0.792,-4.312 -0.792,-1.848 -2.376,-2.86 -1.584,-1.012 -4.004,-1.012 -2.508,0 -4.18,1.144 -1.628,1.144 -2.464,3.124 -0.792,1.98 -0.792,4.576 0,2.508 0.792,4.532 0.836,1.98 2.552,3.168 1.716,1.144 4.356,1.144 2.772,0 4.488,-1.232 1.76,-1.232 2.112,-2.86 h 3.96 q -0.484,2.42 -1.936,4.18 -1.452,1.76 -3.652,2.684 -2.2,0.924 -4.972,0.924 z"
       id="path863"
       style="fill:none" />
    <path
       d="m 322.69938,39.931999 v -23.496 h 3.344 v 9.68 h -0.176 q 0,-5.148 2.244,-7.524 2.288,-2.42 6.82,-2.42 h 0.792 v 3.784 h -1.496 q -3.52,0 -5.412,1.892 -1.892,1.848 -1.892,5.368 v 12.716 z"
       id="path865"
       style="fill:none" />
  </g>
</svg>
