<?xml version="1.0" encoding="UTF-8" standalone="no"?>
<svg
   xmlns:dc="http://purl.org/dc/elements/1.1/"
   xmlns:cc="http://creativecommons.org/ns#"
   xmlns:rdf="http://www.w3.org/1999/02/22-rdf-syntax-ns#"
   xmlns:svg="http://www.w3.org/2000/svg"
   xmlns="http://www.w3.org/2000/svg"
   xmlns:sodipodi="http://sodipodi.sourceforge.net/DTD/sodipodi-0.dtd"
   xmlns:inkscape="http://www.inkscape.org/namespaces/inkscape"
   width="172"
   height="42"
   version="1.1"
   id="svg4"
   sodipodi:docname="firefox-wordmark.svg"
   inkscape:version="1.0.1 (3bc2e813f5, 2020-09-07)">
  <metadata
     id="metadata10">
    <rdf:RDF>
      <cc:Work
         rdf:about="">
        <dc:format>image/svg+xml</dc:format>
        <dc:type
           rdf:resource="http://purl.org/dc/dcmitype/StillImage" />
      </cc:Work>
    </rdf:RDF>
  </metadata>
  <defs
     id="defs8" />
  <sodipodi:namedview
     pagecolor="#ffffff"
     bordercolor="#666666"
     borderopacity="1"
     objecttolerance="10"
     gridtolerance="10"
     guidetolerance="10"
     inkscape:pageopacity="0"
     inkscape:pageshadow="2"
     inkscape:window-width="1920"
     inkscape:window-height="1017"
     id="namedview6"
     showgrid="false"
     inkscape:snap-page="true"
     inkscape:zoom="4.2837515"
     inkscape:cx="116.63345"
     inkscape:cy="28.337491"
     inkscape:window-x="-8"
     inkscape:window-y="-8"
     inkscape:window-maximized="1"
     inkscape:current-layer="svg4" />
  <g
     aria-label="Vessel"
     id="text837"
     style="font-size:54.8424px;line-height:1.25;font-family:Sora;-inkscape-font-specification:Sora;letter-spacing:0px;word-spacing:0px;stroke-width:1">
    <path
       d="M 13.875127,41.238838 1.9359589e-7,1.2038865 H 5.5390826 L 17.988307,37.728925 15.355872,36.412707 H 21.93696 L 19.139998,37.728925 30.602059,1.2038865 h 5.374555 L 23.08865,41.238838 Z"
       style="stroke-width:1"
       id="path839" />
    <path
       d="m 52.922772,42.226001 q -3.838968,0 -6.635931,-1.316217 -2.796962,-1.316218 -4.551919,-3.455071 -1.754957,-2.193696 -2.632435,-4.880974 -0.822636,-2.687278 -0.822636,-5.48424 v -0.987163 q 0,-2.851805 0.822636,-5.539082 0.877478,-2.687278 2.632435,-4.826132 1.754957,-2.193696 4.442234,-3.455071 2.74212,-1.316217 6.416561,-1.316217 4.771289,0 7.842463,2.084011 3.126017,2.029169 4.606762,5.26487 1.535587,3.235702 1.535587,6.910143 v 2.358223 H 40.583232 v -3.948653 h 22.156329 l -1.206533,2.138854 q 0,-3.126017 -0.987163,-5.374556 -0.987163,-2.30338 -2.961489,-3.564756 -1.974327,-1.261375 -4.990659,-1.261375 -3.126017,0 -5.210028,1.425903 -2.029169,1.425902 -3.071174,3.89381 -0.987163,2.467908 -0.987163,5.70361 0,3.126016 0.987163,5.648767 1.042005,2.467908 3.180859,3.948652 2.138854,1.425903 5.429398,1.425903 3.455071,0 5.593924,-1.535587 2.193696,-1.535588 2.632436,-3.564756 h 4.935815 q -0.603266,3.016332 -2.413065,5.210028 -1.809799,2.193696 -4.551919,3.345386 -2.74212,1.15169 -6.197191,1.15169 z"
       style="stroke-width:1"
       id="path841" />
    <path
       d="m 83.634493,42.116317 q -5.758452,0 -8.939311,-2.467908 -3.126017,-2.467908 -3.235702,-6.745616 h 4.935816 q 0.109685,1.700115 1.700115,3.235702 1.645272,1.480745 5.539082,1.480745 3.509914,0 5.374555,-1.37106 1.864642,-1.425903 1.864642,-3.455071 0,-1.8098 -1.37106,-2.796963 -1.37106,-1.042005 -4.442235,-1.37106 l -3.180859,-0.329054 q -4.168022,-0.438739 -6.800457,-2.467908 -2.632436,-2.084011 -2.632436,-5.813294 0,-2.796963 1.425903,-4.771289 1.425902,-2.029169 3.948653,-3.071175 2.52275,-1.096848 5.813294,-1.096848 4.935816,0 8.00699,2.193696 3.071175,2.193696 3.180859,6.526246 h -4.935815 q -0.05484,-1.754957 -1.645272,-2.96149 -1.535588,-1.261375 -4.606762,-1.261375 -3.071174,0 -4.661604,1.261375 -1.59043,1.261376 -1.59043,3.18086 0,1.645272 1.096848,2.632435 1.151691,0.987163 3.729284,1.261375 l 3.180859,0.329054 q 4.716446,0.493582 7.568251,2.632436 2.851805,2.084011 2.851805,5.922979 0,2.74212 -1.59043,4.880973 -1.535587,2.084011 -4.277707,3.290544 -2.74212,1.151691 -6.306876,1.151691 z"
       style="stroke-width:1"
       id="path843" />
    <path
       d="m 113.02998,42.116317 q -5.75845,0 -8.93931,-2.467908 -3.12602,-2.467908 -3.2357,-6.745616 h 4.93581 q 0.10969,1.700115 1.70012,3.235702 1.64527,1.480745 5.53908,1.480745 3.50991,0 5.37455,-1.37106 1.86464,-1.425903 1.86464,-3.455071 0,-1.8098 -1.37106,-2.796963 -1.37106,-1.042005 -4.44223,-1.37106 l -3.18086,-0.329054 q -4.16802,-0.438739 -6.80046,-2.467908 -2.63243,-2.084011 -2.63243,-5.813294 0,-2.796963 1.4259,-4.771289 1.4259,-2.029169 3.94865,-3.071175 2.52275,-1.096848 5.8133,-1.096848 4.93581,0 8.00699,2.193696 3.07117,2.193696 3.18086,6.526246 h -4.93582 q -0.0548,-1.754957 -1.64527,-2.96149 -1.53559,-1.261375 -4.60676,-1.261375 -3.07118,0 -4.66161,1.261375 -1.59043,1.261376 -1.59043,3.18086 0,1.645272 1.09685,2.632435 1.15169,0.987163 3.72929,1.261375 l 3.18085,0.329054 q 4.71645,0.493582 7.56826,2.632436 2.8518,2.084011 2.8518,5.922979 0,2.74212 -1.59043,4.880973 -1.53559,2.084011 -4.27771,3.290544 -2.74212,1.151691 -6.30687,1.151691 z"
       style="stroke-width:1"
       id="path845" />
    <path
       d="m 145.27727,42.226001 q -3.83897,0 -6.63593,-1.316217 -2.79697,-1.316218 -4.55192,-3.455071 -1.75496,-2.193696 -2.63244,-4.880974 -0.82263,-2.687278 -0.82263,-5.48424 v -0.987163 q 0,-2.851805 0.82263,-5.539082 0.87748,-2.687278 2.63244,-4.826132 1.75495,-2.193696 4.44223,-3.455071 2.74212,-1.316217 6.41656,-1.316217 4.77129,0 7.84247,2.084011 3.12601,2.029169 4.60676,5.26487 1.53559,3.235702 1.53559,6.910143 v 2.358223 h -25.9953 v -3.948653 h 22.15633 l -1.20654,2.138854 q 0,-3.126017 -0.98716,-5.374556 -0.98716,-2.30338 -2.96149,-3.564756 -1.97432,-1.261375 -4.99066,-1.261375 -3.12601,0 -5.21002,1.425903 -2.02917,1.425902 -3.07118,3.89381 -0.98716,2.467908 -0.98716,5.70361 0,3.126016 0.98716,5.648767 1.04201,2.467908 3.18086,3.948652 2.13885,1.425903 5.4294,1.425903 3.45507,0 5.59392,-1.535587 2.1937,-1.535588 2.63244,-3.564756 h 4.93581 q -0.60326,3.016332 -2.41306,5.210028 -1.8098,2.193696 -4.55192,3.345386 -2.74212,1.15169 -6.19719,1.15169 z"
       style="stroke-width:1"
       id="path847" />
    <path
       d="M 166.72062,41.238838 V 1.2038865 h 5.26487 V 41.238838 Z M 162.66228,5.3719089 V 1.2038865 h 9.32321 v 4.1680224 z"
       style="stroke-width:1"
       id="path849" />
  </g>
</svg>
