<?xml version="1.0" encoding="UTF-8" standalone="no"?>
<svg
   xmlns:dc="http://purl.org/dc/elements/1.1/"
   xmlns:cc="http://creativecommons.org/ns#"
   xmlns:rdf="http://www.w3.org/1999/02/22-rdf-syntax-ns#"
   xmlns:svg="http://www.w3.org/2000/svg"
   xmlns="http://www.w3.org/2000/svg"
   xmlns:xlink="http://www.w3.org/1999/xlink"
   xmlns:sodipodi="http://sodipodi.sourceforge.net/DTD/sodipodi-0.dtd"
   xmlns:inkscape="http://www.inkscape.org/namespaces/inkscape"
   viewBox="0 0 434 80"
   version="1.1"
   id="svg176"
   sodipodi:docname="horizontal-lockup.svg"
   inkscape:version="1.0.1 (3bc2e813f5, 2020-09-07)">
  <metadata
     id="metadata180">
    <rdf:RDF>
      <cc:Work
         rdf:about="">
        <dc:format>image/svg+xml</dc:format>
        <dc:type
           rdf:resource="http://purl.org/dc/dcmitype/StillImage" />
      </cc:Work>
    </rdf:RDF>
  </metadata>
  <sodipodi:namedview
     pagecolor="#ffffff"
     bordercolor="#666666"
     borderopacity="1"
     objecttolerance="10"
     gridtolerance="10"
     guidetolerance="10"
     inkscape:pageopacity="0"
     inkscape:pageshadow="2"
     inkscape:window-width="1920"
     inkscape:window-height="1017"
     id="namedview178"
     showgrid="false"
     inkscape:snap-bbox="true"
     inkscape:bbox-paths="true"
     inkscape:bbox-nodes="true"
     inkscape:snap-bbox-edge-midpoints="true"
     inkscape:snap-bbox-midpoints="true"
     inkscape:zoom="2.4009217"
     inkscape:cx="234.32214"
     inkscape:cy="-8.7615023"
     inkscape:window-x="-8"
     inkscape:window-y="-8"
     inkscape:window-maximized="1"
     inkscape:current-layer="svg176" />
  <defs
     id="defs146">
    <linearGradient
       id="a"
       x1="70.786"
       y1="12.393"
       x2="6.447"
       y2="74.468"
       gradientUnits="userSpaceOnUse">
      <stop
         offset=".048"
         stop-color="#fff44f"
         id="stop2" />
      <stop
         offset=".111"
         stop-color="#ffe847"
         id="stop4" />
      <stop
         offset=".225"
         stop-color="#ffc830"
         id="stop6" />
      <stop
         offset=".368"
         stop-color="#ff980e"
         id="stop8" />
      <stop
         offset=".401"
         stop-color="#ff8b16"
         id="stop10" />
      <stop
         offset=".462"
         stop-color="#ff672a"
         id="stop12" />
      <stop
         offset=".534"
         stop-color="#ff3647"
         id="stop14" />
      <stop
         offset=".705"
         stop-color="#e31587"
         id="stop16" />
    </linearGradient>
    <radialGradient
       id="b"
       cx="-7907.187"
       cy="-8515.121"
       r="80.797"
       gradientTransform="translate(7975 8524)"
       gradientUnits="userSpaceOnUse">
      <stop
         offset=".129"
         stop-color="#ffbd4f"
         id="stop19" />
      <stop
         offset=".186"
         stop-color="#ffac31"
         id="stop21" />
      <stop
         offset=".247"
         stop-color="#ff9d17"
         id="stop23" />
      <stop
         offset=".283"
         stop-color="#ff980e"
         id="stop25" />
      <stop
         offset=".403"
         stop-color="#ff563b"
         id="stop27" />
      <stop
         offset=".467"
         stop-color="#ff3750"
         id="stop29" />
      <stop
         offset=".71"
         stop-color="#f5156c"
         id="stop31" />
      <stop
         offset=".782"
         stop-color="#eb0878"
         id="stop33" />
      <stop
         offset=".86"
         stop-color="#e50080"
         id="stop35" />
    </radialGradient>
    <radialGradient
       id="c"
       cx="-7936.711"
       cy="-8482.089"
       r="80.797"
       gradientTransform="translate(7975 8524)"
       gradientUnits="userSpaceOnUse">
      <stop
         offset=".3"
         stop-color="#960e18"
         id="stop38" />
      <stop
         offset=".351"
         stop-color="#b11927"
         stop-opacity=".74"
         id="stop40" />
      <stop
         offset=".435"
         stop-color="#db293d"
         stop-opacity=".343"
         id="stop42" />
      <stop
         offset=".497"
         stop-color="#f5334b"
         stop-opacity=".094"
         id="stop44" />
      <stop
         offset=".53"
         stop-color="#ff3750"
         stop-opacity="0"
         id="stop46" />
    </radialGradient>
    <radialGradient
       id="d"
       cx="-7926.97"
       cy="-8533.457"
       r="58.534"
       gradientTransform="translate(7975 8524)"
       gradientUnits="userSpaceOnUse">
      <stop
         offset=".132"
         stop-color="#fff44f"
         id="stop49" />
      <stop
         offset=".252"
         stop-color="#ffdc3e"
         id="stop51" />
      <stop
         offset=".506"
         stop-color="#ff9d12"
         id="stop53" />
      <stop
         offset=".526"
         stop-color="#ff980e"
         id="stop55" />
    </radialGradient>
    <radialGradient
       id="e"
       cx="-7945.648"
       cy="-8460.984"
       r="38.471"
       gradientTransform="translate(7975 8524)"
       gradientUnits="userSpaceOnUse">
      <stop
         offset=".353"
         stop-color="#3a8ee6"
         id="stop58" />
      <stop
         offset=".472"
         stop-color="#5c79f0"
         id="stop60" />
      <stop
         offset=".669"
         stop-color="#9059ff"
         id="stop62" />
      <stop
         offset="1"
         stop-color="#c139e6"
         id="stop64" />
    </radialGradient>
    <radialGradient
       id="f"
       cx="-7935.62"
       cy="-8491.546"
       r="20.397"
       gradientTransform="matrix(.972 -.235 .275 1.138 10091.302 7833.798)"
       gradientUnits="userSpaceOnUse">
      <stop
         offset=".206"
         stop-color="#9059ff"
         stop-opacity="0"
         id="stop67" />
      <stop
         offset=".278"
         stop-color="#8c4ff3"
         stop-opacity=".064"
         id="stop69" />
      <stop
         offset=".747"
         stop-color="#7716a8"
         stop-opacity=".45"
         id="stop71" />
      <stop
         offset=".975"
         stop-color="#6e008b"
         stop-opacity=".6"
         id="stop73" />
    </radialGradient>
    <radialGradient
       id="g"
       cx="-7937.731"
       cy="-8518.427"
       r="27.676"
       gradientTransform="translate(7975 8524)"
       gradientUnits="userSpaceOnUse">
      <stop
         offset="0"
         stop-color="#ffe226"
         id="stop76" />
      <stop
         offset=".121"
         stop-color="#ffdb27"
         id="stop78" />
      <stop
         offset=".295"
         stop-color="#ffc82a"
         id="stop80" />
      <stop
         offset=".502"
         stop-color="#ffa930"
         id="stop82" />
      <stop
         offset=".732"
         stop-color="#ff7e37"
         id="stop84" />
      <stop
         offset=".792"
         stop-color="#ff7139"
         id="stop86" />
    </radialGradient>
    <radialGradient
       id="h"
       cx="-7915.977"
       cy="-8535.981"
       r="118.081"
       gradientTransform="translate(7975 8524)"
       gradientUnits="userSpaceOnUse">
      <stop
         offset=".113"
         stop-color="#fff44f"
         id="stop89" />
      <stop
         offset=".456"
         stop-color="#ff980e"
         id="stop91" />
      <stop
         offset=".622"
         stop-color="#ff5634"
         id="stop93" />
      <stop
         offset=".716"
         stop-color="#ff3647"
         id="stop95" />
      <stop
         offset=".904"
         stop-color="#e31587"
         id="stop97" />
    </radialGradient>
    <radialGradient
       id="i"
       cx="-7927.165"
       cy="-8522.859"
       r="86.499"
       gradientTransform="matrix(.105 .995 -.653 .069 -4684.004 8470.191)"
       gradientUnits="userSpaceOnUse">
      <stop
         offset="0"
         stop-color="#fff44f"
         id="stop100" />
      <stop
         offset=".06"
         stop-color="#ffe847"
         id="stop102" />
      <stop
         offset=".168"
         stop-color="#ffc830"
         id="stop104" />
      <stop
         offset=".304"
         stop-color="#ff980e"
         id="stop106" />
      <stop
         offset=".356"
         stop-color="#ff8b16"
         id="stop108" />
      <stop
         offset=".455"
         stop-color="#ff672a"
         id="stop110" />
      <stop
         offset=".57"
         stop-color="#ff3647"
         id="stop112" />
      <stop
         offset=".737"
         stop-color="#e31587"
         id="stop114" />
    </radialGradient>
    <radialGradient
       id="j"
       cx="-7938.383"
       cy="-8508.176"
       r="73.72"
       gradientTransform="translate(7975 8524)"
       gradientUnits="userSpaceOnUse">
      <stop
         offset=".137"
         stop-color="#fff44f"
         id="stop117" />
      <stop
         offset=".48"
         stop-color="#ff980e"
         id="stop119" />
      <stop
         offset=".592"
         stop-color="#ff5634"
         id="stop121" />
      <stop
         offset=".655"
         stop-color="#ff3647"
         id="stop123" />
      <stop
         offset=".904"
         stop-color="#e31587"
         id="stop125" />
    </radialGradient>
    <radialGradient
       id="k"
       cx="-7918.923"
       cy="-8503.861"
       r="80.686"
       gradientTransform="translate(7975 8524)"
       gradientUnits="userSpaceOnUse">
      <stop
         offset=".094"
         stop-color="#fff44f"
         id="stop128" />
      <stop
         offset=".231"
         stop-color="#ffe141"
         id="stop130" />
      <stop
         offset=".509"
         stop-color="#ffaf1e"
         id="stop132" />
      <stop
         offset=".626"
         stop-color="#ff980e"
         id="stop134" />
    </radialGradient>
    <linearGradient
       id="l"
       x1="70.013"
       y1="12.061"
       x2="15.267"
       y2="66.806"
       gradientUnits="userSpaceOnUse">
      <stop
         offset=".167"
         stop-color="#fff44f"
         stop-opacity=".8"
         id="stop137" />
      <stop
         offset=".266"
         stop-color="#fff44f"
         stop-opacity=".634"
         id="stop139" />
      <stop
         offset=".489"
         stop-color="#fff44f"
         stop-opacity=".217"
         id="stop141" />
      <stop
         offset=".6"
         stop-color="#fff44f"
         stop-opacity="0"
         id="stop143" />
    </linearGradient>
    <linearGradient
       inkscape:collect="always"
       xlink:href="#linearGradient1550"
       id="linearGradient1552"
       x1="121.37445"
       y1="69.19706"
       x2="161.20454"
       y2="72.810555"
       gradientUnits="userSpaceOnUse" />
    <linearGradient
       inkscape:collect="always"
       id="linearGradient1550">
      <stop
         style="stop-color:#b88c43;stop-opacity:1"
         offset="0"
         id="stop1546" />
      <stop
         style="stop-color:#a67f3d;stop-opacity:1"
         offset="1"
         id="stop1548" />
    </linearGradient>
    <linearGradient
       inkscape:collect="always"
       xlink:href="#linearGradient1542"
       id="linearGradient1544"
       x1="224.88132"
       y1="-24.386625"
       x2="210.80896"
       y2="6.649982"
       gradientUnits="userSpaceOnUse" />
    <linearGradient
       inkscape:collect="always"
       id="linearGradient1542">
      <stop
         style="stop-color:#bf9247;stop-opacity:1"
         offset="0"
         id="stop1538" />
      <stop
         style="stop-color:#b28842;stop-opacity:1"
         offset="1"
         id="stop1540" />
    </linearGradient>
    <linearGradient
       inkscape:collect="always"
       xlink:href="#linearGradient1490"
       id="linearGradient1484"
       x1="69.67765"
       y1="119.35424"
       x2="69.834183"
       y2="152.20528"
       gradientUnits="userSpaceOnUse" />
    <linearGradient
       inkscape:collect="always"
       id="linearGradient1490">
      <stop
         style="stop-color:#bf9247;stop-opacity:1"
         offset="0"
         id="stop1486" />
      <stop
         style="stop-color:#a67f3d;stop-opacity:1"
         offset="1"
         id="stop1488" />
    </linearGradient>
    <radialGradient
       inkscape:collect="always"
       xlink:href="#linearGradient1432"
       id="radialGradient1434"
       cx="44.601402"
       cy="13.309835"
       fx="44.601402"
       fy="13.309835"
       r="33.86668"
       gradientTransform="matrix(-0.11180338,0.22360676,-0.49999983,-0.2499999,107.40577,28.171009)"
       gradientUnits="userSpaceOnUse" />
    <linearGradient
       inkscape:collect="always"
       id="linearGradient1432">
      <stop
         style="stop-color:#cc9c4c;stop-opacity:1"
         offset="0"
         id="stop1428" />
      <stop
         style="stop-color:#b28842;stop-opacity:0"
         offset="1"
         id="stop1430" />
    </linearGradient>
    <radialGradient
       inkscape:collect="always"
       xlink:href="#linearGradient1382"
       id="radialGradient1384"
       cx="188.37338"
       cy="18.506237"
       fx="188.37338"
       fy="18.506237"
       r="33.866684"
       gradientTransform="matrix(0.49999958,0.24999982,-0.11180334,0.22360664,103.13254,-17.881529)"
       gradientUnits="userSpaceOnUse" />
    <linearGradient
       inkscape:collect="always"
       id="linearGradient1382">
      <stop
         style="stop-color:#cc9c4c;stop-opacity:1"
         offset="0"
         id="stop1378" />
      <stop
         style="stop-color:#b28842;stop-opacity:1"
         offset="1"
         id="stop1380" />
    </linearGradient>
    <radialGradient
       inkscape:collect="always"
       xlink:href="#linearGradient1382"
       id="radialGradient1392"
       cx="247.90117"
       cy="81.436356"
       fx="247.90117"
       fy="81.436356"
       r="50.800014"
       gradientTransform="matrix(0.3333332,0.16666676,-0.0745356,0.14907105,171.89281,69.669992)"
       gradientUnits="userSpaceOnUse" />
    <radialGradient
       inkscape:collect="always"
       xlink:href="#linearGradient1424"
       id="radialGradient1426"
       cx="84.481789"
       cy="212.27446"
       fx="84.481789"
       fy="212.27446"
       r="33.866688"
       gradientTransform="matrix(-0.5590163,3.5322001e-7,-1.8843699e-7,-0.24999988,131.99674,293.45675)"
       gradientUnits="userSpaceOnUse" />
    <linearGradient
       inkscape:collect="always"
       id="linearGradient1424">
      <stop
         style="stop-color:#806230;stop-opacity:1"
         offset="0"
         id="stop1420" />
      <stop
         style="stop-color:#9e793b;stop-opacity:1"
         offset="1"
         id="stop1422" />
    </linearGradient>
    <linearGradient
       inkscape:collect="always"
       xlink:href="#linearGradient1444"
       id="linearGradient1438"
       x1="153.64944"
       y1="70.219505"
       x2="183.35139"
       y2="87.561981"
       gradientUnits="userSpaceOnUse" />
    <linearGradient
       inkscape:collect="always"
       id="linearGradient1444">
      <stop
         style="stop-color:#bf9348;stop-opacity:0"
         offset="0"
         id="stop1440" />
      <stop
         style="stop-color:#bf9247;stop-opacity:1"
         offset="0.49069291"
         id="stop1446" />
      <stop
         style="stop-color:#bf9247;stop-opacity:0"
         offset="1"
         id="stop1442" />
    </linearGradient>
    <linearGradient
       inkscape:collect="always"
       xlink:href="#linearGradient1414"
       id="linearGradient1464"
       x1="152.39999"
       y1="164.79605"
       x2="194.51837"
       y2="236.29341"
       gradientUnits="userSpaceOnUse" />
    <linearGradient
       inkscape:collect="always"
       id="linearGradient1414">
      <stop
         style="stop-color:#997539;stop-opacity:1"
         offset="0"
         id="stop1410" />
      <stop
         style="stop-color:#b28842;stop-opacity:1"
         offset="1"
         id="stop1412" />
    </linearGradient>
    <linearGradient
       inkscape:collect="always"
       xlink:href="#linearGradient1460"
       id="linearGradient1452"
       x1="200.99947"
       y1="118.34192"
       x2="200.76746"
       y2="153.45586"
       gradientUnits="userSpaceOnUse" />
    <linearGradient
       inkscape:collect="always"
       id="linearGradient1460">
      <stop
         style="stop-color:#bf9348;stop-opacity:0"
         offset="0"
         id="stop1454" />
      <stop
         style="stop-color:#bf9247;stop-opacity:1"
         offset="0.14971495"
         id="stop1456" />
      <stop
         style="stop-color:#bf9247;stop-opacity:0"
         offset="1"
         id="stop1458" />
    </linearGradient>
    <radialGradient
       inkscape:collect="always"
       xlink:href="#linearGradient1470"
       id="radialGradient1416"
       cx="186.39738"
       cy="212.27451"
       fx="186.39738"
       fy="212.27451"
       r="33.86668"
       gradientTransform="matrix(-0.55901689,-1.2358792e-7,5.2882779e-8,-0.24999996,290.39286,293.45683)"
       gradientUnits="userSpaceOnUse" />
    <linearGradient
       inkscape:collect="always"
       id="linearGradient1470">
      <stop
         style="stop-color:#997438;stop-opacity:1"
         offset="0"
         id="stop1466" />
      <stop
         style="stop-color:#997539;stop-opacity:0"
         offset="1"
         id="stop1468" />
    </linearGradient>
    <linearGradient
       inkscape:collect="always"
       xlink:href="#linearGradient1490"
       id="linearGradient1508"
       x1="116.74802"
       y1="70.371216"
       x2="104.71803"
       y2="82.20845"
       gradientUnits="userSpaceOnUse" />
    <linearGradient
       inkscape:collect="always"
       xlink:href="#linearGradient1502"
       id="linearGradient1496"
       gradientUnits="userSpaceOnUse"
       x1="101.6"
       y1="135.46667"
       x2="81.823112"
       y2="135.46666" />
    <linearGradient
       inkscape:collect="always"
       id="linearGradient1502">
      <stop
         style="stop-color:#997539;stop-opacity:1"
         offset="0"
         id="stop1498" />
      <stop
         style="stop-color:#b28842;stop-opacity:0"
         offset="1"
         id="stop1500" />
    </linearGradient>
    <radialGradient
       inkscape:collect="always"
       xlink:href="#linearGradient1304"
       id="radialGradient1306"
       cx="152.39999"
       cy="118.53329"
       fx="152.39999"
       fy="118.53329"
       r="33.866924"
       gradientTransform="matrix(-0.24999814,0.24999822,-0.49999647,-0.49999635,249.76593,139.69981)"
       gradientUnits="userSpaceOnUse" />
    <linearGradient
       inkscape:collect="always"
       id="linearGradient1304">
      <stop
         style="stop-color:#516fd9;stop-opacity:1"
         offset="0"
         id="stop1300" />
      <stop
         style="stop-color:#425bb2;stop-opacity:1"
         offset="1"
         id="stop1302" />
    </linearGradient>
    <linearGradient
       inkscape:collect="always"
       xlink:href="#linearGradient1322"
       id="linearGradient1324"
       x1="110.06667"
       y1="160.86667"
       x2="160.86667"
       y2="110.06667"
       gradientUnits="userSpaceOnUse" />
    <linearGradient
       inkscape:collect="always"
       id="linearGradient1322">
      <stop
         style="stop-color:#304180;stop-opacity:1"
         offset="0"
         id="stop1318" />
      <stop
         style="stop-color:#425bb2;stop-opacity:0"
         offset="1"
         id="stop1320" />
    </linearGradient>
  </defs>
  <g
     id="g1574"
     transform="matrix(0.33745778,0,0,0.33745778,-4.4142794,-5.7142787)">
    <path
       id="path1520"
       style="fill:none;fill-rule:evenodd;stroke:#a67f3d;stroke-width:33.8667;stroke-linecap:round;stroke-linejoin:round;stroke-miterlimit:4;stroke-dasharray:none;stroke-opacity:1"
       d="m 203.20013,135.46644 c 0,25.11577 -13.66994,47.03874 -33.97545,58.7346"
       sodipodi:nodetypes="cc"
       inkscape:transform-center-x="-50.745487"
       inkscape:transform-center-y="29.367082" />
    <path
       id="path1522"
       style="fill:none;fill-rule:evenodd;stroke:#997538;stroke-width:33.8667;stroke-linecap:round;stroke-linejoin:round;stroke-miterlimit:4;stroke-dasharray:none;stroke-opacity:1"
       d="m 169.33371,194.12523 c -21.75089,12.55789 -47.57171,11.68086 -67.85338,-0.0563"
       sodipodi:nodetypes="cc"
       inkscape:transform-center-x="0.059898934"
       inkscape:transform-center-y="63.173349" />
    <path
       id="path1524"
       style="fill:none;fill-rule:evenodd;stroke:#947137;stroke-width:33.8667;stroke-linecap:round;stroke-linejoin:round;stroke-miterlimit:4;stroke-dasharray:none;stroke-opacity:1"
       d="M 101.6005,194.12545 C 79.849605,181.56757 67.698725,158.76757 67.722569,135.33454"
       sodipodi:nodetypes="cc"
       inkscape:transform-center-x="50.805403"
       inkscape:transform-center-y="29.263337" />
    <path
       id="path1526"
       style="fill:none;fill-rule:evenodd;stroke:#a67f3d;stroke-width:33.8667;stroke-linecap:round;stroke-linejoin:round;stroke-miterlimit:4;stroke-dasharray:none;stroke-opacity:1"
       d="m 67.733706,135.46688 c -4e-6,-25.11577 13.669935,-47.038743 33.975454,-58.734609"
       sodipodi:nodetypes="cc"
       inkscape:transform-center-x="50.745487"
       inkscape:transform-center-y="-29.367084" />
    <path
       id="path1528"
       style="fill:none;fill-rule:evenodd;stroke:url(#linearGradient1552);stroke-width:33.8667;stroke-linecap:round;stroke-linejoin:round;stroke-miterlimit:4;stroke-dasharray:none;stroke-opacity:1"
       d="m 101.60012,76.808086 c 21.75089,-12.557888 47.57172,-11.68086 67.85339,0.0563"
       sodipodi:nodetypes="cc"
       inkscape:transform-center-x="-0.059895934"
       inkscape:transform-center-y="-63.17335" />
    <path
       id="path1223"
       style="fill:none;fill-rule:evenodd;stroke:url(#linearGradient1544);stroke-width:33.8667;stroke-linecap:round;stroke-linejoin:round;stroke-miterlimit:4;stroke-dasharray:none;stroke-opacity:1"
       d="m 185.0509,-18.149101 c 25.11577,0 47.03874,13.6699352 58.7346,33.975444"
       sodipodi:nodetypes="cc"
       transform="rotate(30)" />
    <path
       style="fill:none;stroke:url(#linearGradient1484);stroke-width:33.8667;stroke-linecap:round;stroke-linejoin:miter;stroke-miterlimit:4;stroke-dasharray:none;stroke-opacity:1"
       d="m 33.866666,135.46666 67.733334,1e-5"
       id="path1268"
       sodipodi:nodetypes="cc"
       inkscape:transform-center-x="67.733334" />
    <path
       style="fill:none;stroke:url(#radialGradient1434);stroke-width:33.8667;stroke-linecap:round;stroke-linejoin:miter;stroke-miterlimit:4;stroke-dasharray:none;stroke-opacity:1"
       d="m 84.66667,47.478482 33.86666,58.658788"
       id="path1282"
       sodipodi:nodetypes="cc"
       inkscape:transform-center-x="33.866666"
       inkscape:transform-center-y="-58.65879" />
    <path
       style="fill:none;stroke:url(#radialGradient1384);stroke-width:33.8667;stroke-linecap:round;stroke-linejoin:miter;stroke-miterlimit:4;stroke-dasharray:none;stroke-opacity:1"
       d="M 186.26667,47.478487 152.4,106.13727"
       id="path1284"
       sodipodi:nodetypes="cc"
       inkscape:transform-center-x="-33.86667"
       inkscape:transform-center-y="-58.658787" />
    <path
       style="fill:none;stroke:url(#radialGradient1392);stroke-width:33.8667;stroke-linecap:round;stroke-linejoin:miter;stroke-miterlimit:4;stroke-dasharray:none;stroke-opacity:1"
       d="m 237.06666,135.46667 -67.73333,-1e-5"
       id="path1286"
       sodipodi:nodetypes="cc"
       inkscape:transform-center-x="-67.733331" />
    <path
       style="fill:none;stroke:url(#radialGradient1426);stroke-width:33.8667;stroke-linecap:round;stroke-linejoin:miter;stroke-miterlimit:4;stroke-dasharray:none;stroke-opacity:1"
       d="M 84.666668,223.45484 118.53334,164.79606"
       id="path1290"
       sodipodi:nodetypes="cc"
       inkscape:transform-center-x="33.866662"
       inkscape:transform-center-y="58.658786" />
    <path
       style="fill:none;stroke:url(#linearGradient1438);stroke-width:33.8667;stroke-linecap:round;stroke-linejoin:miter;stroke-miterlimit:4;stroke-dasharray:none;stroke-opacity:1"
       d="M 186.26667,47.478487 152.4,106.13727"
       id="path1436"
       sodipodi:nodetypes="cc"
       inkscape:transform-center-x="-33.86667"
       inkscape:transform-center-y="-58.658787" />
    <path
       style="fill:none;fill-opacity:1;stroke:url(#linearGradient1464);stroke-width:33.8667;stroke-linecap:round;stroke-linejoin:miter;stroke-miterlimit:4;stroke-dasharray:none;stroke-opacity:1"
       d="M 186.26666,223.45484 152.4,164.79605"
       id="path1462"
       sodipodi:nodetypes="cc"
       inkscape:transform-center-x="-33.866665"
       inkscape:transform-center-y="58.658781" />
    <path
       style="fill:none;stroke:url(#linearGradient1452);stroke-width:33.8667;stroke-linecap:round;stroke-linejoin:miter;stroke-miterlimit:4;stroke-dasharray:none;stroke-opacity:1"
       d="m 237.06666,135.46667 -67.73333,-1e-5"
       id="path1448"
       sodipodi:nodetypes="cc"
       inkscape:transform-center-x="-67.733331" />
    <path
       style="fill:none;fill-opacity:1;stroke:url(#radialGradient1416);stroke-width:33.8667;stroke-linecap:round;stroke-linejoin:miter;stroke-miterlimit:4;stroke-dasharray:none;stroke-opacity:1"
       d="M 186.26666,223.45484 152.4,164.79605"
       id="path1288"
       sodipodi:nodetypes="cc"
       inkscape:transform-center-x="-33.866665"
       inkscape:transform-center-y="58.658781" />
    <path
       style="fill:none;stroke:url(#linearGradient1508);stroke-width:33.8667;stroke-linecap:round;stroke-linejoin:miter;stroke-miterlimit:4;stroke-dasharray:none;stroke-opacity:1"
       d="m 84.66667,47.478482 33.86666,58.658788"
       id="path1504"
       sodipodi:nodetypes="cc"
       inkscape:transform-center-x="33.866666"
       inkscape:transform-center-y="-58.65879" />
    <path
       style="fill:none;stroke:url(#linearGradient1496);stroke-width:33.8667;stroke-linecap:round;stroke-linejoin:miter;stroke-miterlimit:4;stroke-dasharray:none;stroke-opacity:1"
       d="m 33.866666,135.46666 67.733334,1e-5"
       id="path1494"
       sodipodi:nodetypes="cc"
       inkscape:transform-center-x="67.733334" />
    <g
       id="g1328">
      <path
         id="path1231"
         style="fill:url(#radialGradient1306);fill-opacity:1;fill-rule:evenodd;stroke:#b28842;stroke-width:0;stroke-linecap:round;stroke-linejoin:round;stroke-miterlimit:4;stroke-dasharray:none;stroke-opacity:1"
         d="m 169.20294,132.51515 a 33.864887,33.864887 0 0 1 -30.78451,36.68752 33.864887,33.864887 0 0 1 -36.68753,-30.78448 33.864887,33.864887 0 0 1 30.78449,-36.68754 33.864887,33.864887 0 0 1 36.68755,30.7845 z" />
      <path
         id="path1308"
         style="fill:url(#linearGradient1324);fill-opacity:1;fill-rule:evenodd;stroke:#b28842;stroke-width:0;stroke-linecap:round;stroke-linejoin:round;stroke-miterlimit:4;stroke-dasharray:none;stroke-opacity:1"
         d="m 169.20294,132.51515 a 33.864887,33.864887 0 0 1 -30.78451,36.68752 33.864887,33.864887 0 0 1 -36.68753,-30.78448 33.864887,33.864887 0 0 1 30.78449,-36.68754 33.864887,33.864887 0 0 1 36.68755,30.7845 z" />
    </g>
  </g>
  <g
     aria-label="Vessel Browser"
     id="text1185"
     style="font-size:43.8519px;line-height:1.25;font-family:Sora;-inkscape-font-specification:Sora;letter-spacing:0px;word-spacing:0px;stroke-width:1.64444">
    <path
       d="M 108.6532,55.729668 97.558667,23.717782 h 4.429043 l 9.95438,29.205364 -2.10489,-1.052445 h 5.26223 l -2.23645,1.052445 9.16505,-29.205364 h 4.29748 l -10.30519,32.011886 z"
       style="stroke-width:1.64444"
       id="path1187" />
    <path
       d="m 139.87563,56.519002 q -3.06963,0 -5.30608,-1.052446 -2.23644,-1.052445 -3.6397,-2.762669 -1.40327,-1.754076 -2.1049,-3.902819 -0.65777,-2.148743 -0.65777,-4.38519 v -0.789334 q 0,-2.280299 0.65777,-4.429042 0.70163,-2.148743 2.1049,-3.858967 1.40326,-1.754076 3.552,-2.76267 2.19259,-1.052445 5.13067,-1.052445 3.81512,0 6.27082,1.666372 2.49956,1.62252 3.68356,4.209782 1.22786,2.587262 1.22786,5.525339 v 1.885632 h -20.7858 v -3.157337 h 17.71616 l -0.96474,1.710224 q 0,-2.499558 -0.78933,-4.297486 -0.78934,-1.841779 -2.36801,-2.850373 -1.57866,-1.008594 -3.99052,-1.008594 -2.49956,0 -4.16593,1.14015 -1.62252,1.140149 -2.45571,3.113484 -0.78933,1.973336 -0.78933,4.560598 0,2.499558 0.78933,4.516745 0.83319,1.973336 2.54341,3.157337 1.71023,1.140149 4.34134,1.140149 2.76267,0 4.4729,-1.227853 1.75407,-1.227853 2.10489,-2.850373 h 3.94667 q -0.48237,2.411854 -1.92949,4.16593 -1.44711,1.754076 -3.6397,2.674966 -2.1926,0.92089 -4.95527,0.92089 z"
       style="stroke-width:1.64444"
       id="path1189" />
    <path
       d="m 164.43267,56.431298 q -4.60445,0 -7.14786,-1.973335 -2.49955,-1.973336 -2.58726,-5.393784 h 3.94667 q 0.0877,1.359409 1.35941,2.587262 1.31556,1.184001 4.42904,1.184001 2.80652,0 4.29749,-1.096297 1.49096,-1.140149 1.49096,-2.76267 0,-1.447112 -1.09629,-2.236446 -1.0963,-0.833187 -3.55201,-1.096298 l -2.54341,-0.263111 q -3.33274,-0.350815 -5.43763,-1.973336 -2.10489,-1.666372 -2.10489,-4.648301 0,-2.236447 1.14015,-3.815115 1.14014,-1.62252 3.15733,-2.455706 2.01719,-0.877038 4.6483,-0.877038 3.94667,0 6.40238,1.754076 2.45571,1.754076 2.54341,5.218375 h -3.94667 q -0.0439,-1.40326 -1.31556,-2.368002 -1.22785,-1.008594 -3.68356,-1.008594 -2.4557,0 -3.72741,1.008594 -1.2717,1.008594 -1.2717,2.54341 0,1.315557 0.87703,2.104891 0.92089,0.789334 2.98193,1.008594 l 2.54341,0.263111 q 3.77127,0.394667 6.05157,2.104891 2.28029,1.666372 2.28029,4.736005 0,2.192595 -1.2717,3.902819 -1.22785,1.666372 -3.42045,2.631114 -2.19259,0.92089 -5.04297,0.92089 z"
       style="stroke-width:1.64444"
       id="path1191" />
    <path
       d="m 187.93726,56.431298 q -4.60445,0 -7.14786,-1.973335 -2.49956,-1.973336 -2.58726,-5.393784 h 3.94667 q 0.0877,1.359409 1.35941,2.587262 1.31556,1.184001 4.42904,1.184001 2.80652,0 4.29749,-1.096297 1.49096,-1.140149 1.49096,-2.76267 0,-1.447112 -1.09629,-2.236446 -1.0963,-0.833187 -3.55201,-1.096298 L 186.534,45.38062 q -3.33274,-0.350815 -5.43763,-1.973336 -2.10489,-1.666372 -2.10489,-4.648301 0,-2.236447 1.14014,-3.815115 1.14015,-1.62252 3.15734,-2.455706 2.01719,-0.877038 4.6483,-0.877038 3.94667,0 6.40238,1.754076 2.45571,1.754076 2.54341,5.218375 h -3.94667 q -0.0439,-1.40326 -1.31556,-2.368002 -1.22785,-1.008594 -3.68356,-1.008594 -2.4557,0 -3.72741,1.008594 -1.2717,1.008594 -1.2717,2.54341 0,1.315557 0.87703,2.104891 0.92089,0.789334 2.98193,1.008594 l 2.54341,0.263111 q 3.77127,0.394667 6.05157,2.104891 2.28029,1.666372 2.28029,4.736005 0,2.192595 -1.2717,3.902819 -1.22785,1.666372 -3.42045,2.631114 -2.19259,0.92089 -5.04297,0.92089 z"
       style="stroke-width:1.64444"
       id="path1193" />
    <path
       d="m 213.72215,56.519002 q -3.06964,0 -5.30608,-1.052446 -2.23645,-1.052445 -3.63971,-2.762669 -1.40326,-1.754076 -2.10489,-3.902819 -0.65778,-2.148743 -0.65778,-4.38519 v -0.789334 q 0,-2.280299 0.65778,-4.429042 0.70163,-2.148743 2.10489,-3.858967 1.40326,-1.754076 3.552,-2.76267 2.1926,-1.052445 5.13067,-1.052445 3.81512,0 6.27083,1.666372 2.49955,1.62252 3.68356,4.209782 1.22785,2.587262 1.22785,5.525339 v 1.885632 h -20.7858 v -3.157337 h 17.71617 l -0.96475,1.710224 q 0,-2.499558 -0.78933,-4.297486 -0.78933,-1.841779 -2.368,-2.850373 -1.57867,-1.008594 -3.99053,-1.008594 -2.49955,0 -4.16593,1.14015 -1.62252,1.140149 -2.4557,3.113484 -0.78934,1.973336 -0.78934,4.560598 0,2.499558 0.78934,4.516745 0.83318,1.973336 2.54341,3.157337 1.71022,1.140149 4.34134,1.140149 2.76267,0 4.47289,-1.227853 1.75408,-1.227853 2.10489,-2.850373 h 3.94667 q -0.48237,2.411854 -1.92948,4.16593 -1.44711,1.754076 -3.63971,2.674966 -2.19259,0.92089 -4.95526,0.92089 z"
       style="stroke-width:1.64444"
       id="path1195" />
    <path
       d="M 230.86822,55.729668 V 23.717782 h 4.20978 v 32.011886 z m -3.24504,-28.679142 v -3.332744 h 7.45482 v 3.332744 z"
       style="stroke-width:1.64444"
       id="path1197" />
    <path
       d="m 257.17928,55.905075 v -3.771263 h 8.94578 q 2.58727,0 3.99053,-1.447113 1.44711,-1.490964 1.44711,-3.94667 0,-2.499559 -1.40326,-3.902819 -1.40326,-1.447113 -4.03438,-1.447113 h -8.94578 v -2.806522 h 8.33186 q 3.06963,0 5.39378,0.745483 2.368,0.745482 3.68356,2.499558 1.35941,1.710224 1.35941,4.692153 v 0.613927 q 0,2.806521 -1.14015,4.779857 -1.14015,1.929483 -3.4643,2.981929 -2.32415,1.008593 -5.8323,1.008593 z m -3.42045,0 V 23.542374 h 4.29748 v 32.362701 z m 3.42045,-15.304312 v -2.806522 h 7.76178 q 2.71882,0 3.99053,-1.447112 1.31555,-1.490965 1.31555,-3.771264 0,-2.32415 -1.31555,-3.771263 -1.27171,-1.490964 -3.99053,-1.490964 h -7.76178 v -3.771264 h 7.0163 q 5.26223,0 7.84949,2.236447 2.58726,2.192595 2.58726,6.358525 v 0.613927 q 0,2.938077 -1.31556,4.692153 -1.31555,1.710224 -3.68355,2.455706 -2.32416,0.701631 -5.43764,0.701631 z"
       style="stroke-width:1.64444"
       id="path1199" />
    <path
       d="M 282.96412,55.729668 V 32.312754 h 3.33274 v 9.647418 h -0.17541 q 0,-5.130672 2.23645,-7.498675 2.2803,-2.411854 6.79704,-2.411854 h 0.78934 v 3.771263 h -1.49097 q -3.50815,0 -5.39378,1.885632 -1.88563,1.841779 -1.88563,5.349931 v 12.673199 z"
       style="stroke-width:1.64444"
       id="path1201" />
    <path
       d="m 311.46782,56.519002 q -3.06963,0 -5.39378,-1.052446 -2.32415,-1.052445 -3.94667,-2.762669 -1.57867,-1.754076 -2.41186,-3.902819 -0.78933,-2.148743 -0.78933,-4.38519 v -0.789334 q 0,-2.236447 0.83319,-4.38519 0.83318,-2.192595 2.4557,-3.902819 1.62252,-1.754076 3.94667,-2.76267 2.32415,-1.052445 5.30608,-1.052445 2.98193,0 5.30608,1.052445 2.32415,1.008594 3.94667,2.76267 1.62252,1.710224 2.45571,3.902819 0.83319,2.148743 0.83319,4.38519 v 0.789334 q 0,2.236447 -0.83319,4.38519 -0.78933,2.148743 -2.41185,3.902819 -1.57867,1.710224 -3.90282,2.762669 -2.32415,1.052446 -5.39379,1.052446 z m 0,-3.771263 q 2.63112,0 4.4729,-1.14015 1.88563,-1.184001 2.85037,-3.157336 1.00859,-1.973336 1.00859,-4.429042 0,-2.499558 -1.00859,-4.472894 -1.00859,-1.973335 -2.89423,-3.113485 -1.84177,-1.140149 -4.42904,-1.140149 -2.54341,0 -4.42904,1.140149 -1.88563,1.14015 -2.89422,3.113485 -1.0086,1.973336 -1.0086,4.472894 0,2.455706 0.96474,4.429042 1.0086,1.973335 2.85038,3.157336 1.88563,1.14015 4.51674,1.14015 z"
       style="stroke-width:1.64444"
       id="path1203" />
    <path
       d="m 336.72644,55.729668 4.73601,-22.62758 h 5.70075 l 5.52534,22.62758 h -3.59586 l -5.52534,-22.539876 h 1.40326 l -4.77986,22.539876 z m -2.14874,0 v -3.332745 h 4.86756 v 3.332745 z m -0.96474,0 -6.62164,-23.416914 h 4.03438 l 6.44623,23.416914 z m 16.35676,0 v -3.332745 h 4.86756 v 3.332745 z m 1.97333,0 5.61305,-23.416914 h 3.81511 l -5.7446,23.416914 z"
       style="stroke-width:1.64444"
       id="path1205" />
    <path
       d="m 374.57054,56.431298 q -4.60445,0 -7.14786,-1.973335 -2.49956,-1.973336 -2.58726,-5.393784 h 3.94667 q 0.0877,1.359409 1.35941,2.587262 1.31556,1.184001 4.42904,1.184001 2.80652,0 4.29749,-1.096297 1.49096,-1.140149 1.49096,-2.76267 0,-1.447112 -1.0963,-2.236446 -1.09629,-0.833187 -3.552,-1.096298 l -2.54341,-0.263111 q -3.33274,-0.350815 -5.43764,-1.973336 -2.10489,-1.666372 -2.10489,-4.648301 0,-2.236447 1.14015,-3.815115 1.14015,-1.62252 3.15734,-2.455706 2.01719,-0.877038 4.6483,-0.877038 3.94667,0 6.40238,1.754076 2.4557,1.754076 2.54341,5.218375 h -3.94667 q -0.0439,-1.40326 -1.31556,-2.368002 -1.22785,-1.008594 -3.68356,-1.008594 -2.45571,0 -3.72741,1.008594 -1.27171,1.008594 -1.27171,2.54341 0,1.315557 0.87704,2.104891 0.92089,0.789334 2.98193,1.008594 l 2.54341,0.263111 q 3.77126,0.394667 6.05156,2.104891 2.2803,1.666372 2.2803,4.736005 0,2.192595 -1.2717,3.902819 -1.22786,1.666372 -3.42045,2.631114 -2.1926,0.92089 -5.04297,0.92089 z"
       style="stroke-width:1.64444"
       id="path1207" />
    <path
       d="m 400.35542,56.519002 q -3.06964,0 -5.30608,-1.052446 -2.23645,-1.052445 -3.63971,-2.762669 -1.40326,-1.754076 -2.10489,-3.902819 -0.65778,-2.148743 -0.65778,-4.38519 v -0.789334 q 0,-2.280299 0.65778,-4.429042 0.70163,-2.148743 2.10489,-3.858967 1.40326,-1.754076 3.552,-2.76267 2.1926,-1.052445 5.13068,-1.052445 3.81511,0 6.27082,1.666372 2.49955,1.62252 3.68356,4.209782 1.22785,2.587262 1.22785,5.525339 v 1.885632 h -20.7858 v -3.157337 h 17.71617 l -0.96475,1.710224 q 0,-2.499558 -0.78933,-4.297486 -0.78933,-1.841779 -2.368,-2.850373 -1.57867,-1.008594 -3.99052,-1.008594 -2.49956,0 -4.16594,1.14015 -1.62252,1.140149 -2.4557,3.113484 -0.78934,1.973336 -0.78934,4.560598 0,2.499558 0.78934,4.516745 0.83318,1.973336 2.54341,3.157337 1.71022,1.140149 4.34134,1.140149 2.76267,0 4.47289,-1.227853 1.75408,-1.227853 2.10489,-2.850373 h 3.94667 q -0.48237,2.411854 -1.92948,4.16593 -1.44711,1.754076 -3.63971,2.674966 -2.19259,0.92089 -4.95526,0.92089 z"
       style="stroke-width:1.64444"
       id="path1209" />
    <path
       d="M 417.23838,55.729668 V 32.312754 h 3.33274 v 9.647418 h -0.17541 q 0,-5.130672 2.23645,-7.498675 2.2803,-2.411854 6.79704,-2.411854 h 0.78934 v 3.771263 h -1.49097 q -3.50815,0 -5.39378,1.885632 -1.88563,1.841779 -1.88563,5.349931 v 12.673199 z"
       style="stroke-width:1.64444"
       id="path1211" />
  </g>
</svg>
